<?xml version="1.0" standalone="no"?>
<!DOCTYPE svg PUBLIC "-//W3C//DTD SVG 20010904//EN"
 "http://www.w3.org/TR/2001/REC-SVG-20010904/DTD/svg10.dtd">
<svg version="1.0" xmlns="http://www.w3.org/2000/svg"
 width="908.000000pt" height="213.000000pt" viewBox="0 0 908.000000 213.000000"
 preserveAspectRatio="xMidYMid meet">

<g transform="translate(0.000000,213.000000) scale(0.100000,-0.100000)"
fill="#000000" stroke="none">
<path d="M938 1999 c-60 -14 -150 -63 -205 -113 -34 -31 -154 -193 -351 -474
-367 -524 -353 -502 -346 -513 3 -5 97 -9 209 -9 l205 0 51 70 51 70 195 0
195 0 -6 -35 c-3 -19 -9 -51 -12 -70 l-6 -35 195 0 195 0 6 28 c16 78 186
1060 186 1075 0 16 -20 17 -262 16 -145 -1 -280 -5 -300 -10z m99 -435 l-33
-189 -108 -3 -108 -3 20 28 c173 249 255 364 258 361 2 -2 -11 -89 -29 -194z"/>
<path d="M1627 2003 c-3 -5 -42 -220 -87 -478 -89 -511 -89 -515 -38 -580 41
-53 59 -55 413 -55 179 0 325 1 325 3 0 1 14 79 30 172 16 94 30 173 30 178 0
4 -81 7 -180 7 l-180 0 5 23 c23 105 125 720 120 727 -7 12 -432 14 -438 3z"/>
<path d="M2513 1998 c-6 -7 -41 -188 -78 -402 -75 -429 -76 -457 -30 -553 46
-93 145 -148 315 -174 98 -15 401 -5 495 16 196 44 321 152 363 315 18 66 112
613 112 646 0 45 -38 111 -78 136 -33 21 -52 23 -184 26 -117 3 -149 1 -153
-10 -3 -7 -32 -168 -65 -358 -33 -190 -63 -353 -66 -363 -22 -71 -131 -127
-207 -106 -47 12 -92 56 -100 96 -3 16 15 145 40 288 49 281 51 332 14 384
-40 56 -71 65 -227 69 -108 3 -142 1 -151 -10z"/>
<path d="M3844 1999 c-7 -11 -194 -1062 -194 -1091 0 -17 16 -18 189 -18 105
0 192 4 195 8 3 5 28 141 56 303 28 162 55 305 59 319 6 19 10 3 16 -65 4 -49
17 -196 29 -325 l21 -235 185 0 185 0 144 328 c79 180 145 326 147 324 2 -1
-21 -140 -51 -307 -30 -168 -55 -315 -55 -327 l0 -23 190 0 c144 0 192 3 195
13 2 6 41 220 85 474 92 525 92 522 20 587 -49 44 -74 48 -335 44 l-210 -3
-25 -50 c-14 -28 -65 -141 -114 -253 -49 -111 -91 -200 -94 -198 -2 3 -11 72
-18 153 -7 81 -19 168 -26 193 -17 63 -88 133 -150 148 -61 16 -434 16 -444 1z"/>
<path d="M5475 1999 c-2 -8 -34 -183 -70 -389 -36 -206 -79 -450 -95 -542 -17
-92 -30 -170 -30 -173 0 -4 192 -5 428 -3 399 4 432 6 505 26 200 55 287 157
295 347 3 76 0 95 -16 121 -25 38 -77 64 -148 71 -30 3 -54 9 -54 13 0 4 21
10 46 14 56 7 130 39 162 69 51 48 90 173 80 261 -10 86 -79 141 -217 173 -94
22 -878 32 -886 12z m595 -234 c43 -22 53 -71 24 -126 -20 -40 -79 -66 -171
-75 -85 -8 -82 -15 -58 117 23 122 14 113 102 105 42 -4 88 -13 103 -21z m-70
-433 c44 -22 60 -53 50 -98 -19 -83 -72 -116 -197 -122 -96 -5 -89 -15 -68
113 24 136 15 125 103 125 53 0 88 -5 112 -18z"/>
<path d="M6735 1998 c-7 -20 -195 -1083 -195 -1102 0 -9 438 -7 444 2 3 5 20
93 38 195 18 103 35 187 38 187 4 0 61 -79 129 -176 74 -105 136 -183 155
-195 29 -17 53 -19 323 -19 230 0 294 3 305 13 7 8 31 39 52 70 l39 57 197 0
197 0 -8 -42 c-4 -24 -8 -55 -9 -71 l0 -27 193 2 192 3 96 550 c53 303 95 553
92 558 -2 4 -120 7 -261 7 -277 0 -320 -6 -409 -54 -97 -53 -135 -98 -398
-475 -143 -204 -262 -371 -265 -371 -5 0 -153 213 -157 227 -2 4 23 16 55 25
139 41 231 194 232 386 0 153 -106 228 -358 252 -161 15 -711 13 -717 -2z
m570 -247 c43 -25 52 -59 31 -115 -22 -58 -64 -85 -156 -99 -38 -6 -72 -8 -75
-5 -3 3 3 56 15 118 11 63 20 118 20 123 0 15 131 -2 165 -22z m1246 -189
c-17 -98 -31 -181 -31 -185 0 -4 -48 -7 -106 -7 -58 0 -104 4 -102 9 10 26
263 380 266 372 2 -6 -10 -90 -27 -189z"/>
<path d="M7496 560 c-29 -44 -17 -54 22 -17 l24 22 19 -24 c26 -31 34 -21 19
23 -16 51 -49 49 -84 -4z"/>
<path d="M2938 573 c-35 -3 -51 -9 -58 -24 -11 -20 3 -28 15 -9 4 6 23 7 45 4
32 -5 40 -3 49 15 7 11 8 20 4 19 -4 -1 -29 -3 -55 -5z"/>
<path d="M1289 461 c-53 -54 -33 -108 64 -174 35 -23 37 -69 5 -91 -32 -23
-55 -20 -85 10 -22 22 -28 24 -39 12 -33 -33 44 -81 114 -70 61 9 101 88 72
142 -5 10 -32 32 -60 49 -41 25 -50 36 -50 59 0 15 5 33 12 40 16 16 59 15 85
-3 18 -12 23 -13 32 -1 18 22 -32 56 -81 56 -30 0 -46 -7 -69 -29z"/>
<path d="M1605 479 c-38 -12 -68 -37 -94 -80 -27 -44 -29 -138 -3 -181 56 -95
217 -95 290 0 21 28 27 48 30 101 3 56 0 71 -20 101 -41 61 -120 84 -203 59z
m119 -43 c35 -14 66 -66 66 -108 -1 -41 -37 -106 -69 -122 -43 -23 -113 -21
-144 4 -68 54 -55 171 26 220 38 23 75 25 121 6z"/>
<path d="M2520 468 c-61 -31 -90 -83 -90 -163 0 -42 6 -70 20 -92 20 -33 66
-63 96 -63 11 0 15 -6 11 -20 -3 -13 0 -20 9 -20 20 0 30 -30 13 -40 -7 -5
-26 -6 -41 -3 -16 3 -28 1 -28 -5 0 -15 67 -24 90 -12 31 16 26 58 -7 71 l-28
11 25 8 c14 5 37 11 51 14 18 4 28 14 32 31 4 21 1 25 -12 19 -9 -4 -40 -10
-68 -12 -48 -3 -56 -1 -82 26 -54 53 -53 128 2 188 42 46 100 56 152 26 l35
-21 0 28 c0 24 -6 31 -31 40 -49 17 -101 13 -149 -11z"/>
<path d="M2850 479 c-32 -13 -78 -56 -96 -91 -8 -15 -14 -53 -14 -84 0 -101
56 -157 155 -157 64 0 118 25 153 71 21 28 27 48 30 101 3 56 0 71 -20 101
-13 19 -39 43 -58 52 -38 20 -110 23 -150 7z m125 -45 c35 -16 65 -65 65 -105
0 -38 -40 -109 -71 -124 -41 -22 -111 -19 -142 5 -68 54 -55 171 26 220 39 24
78 25 122 4z"/>
<path d="M3431 464 c-25 -21 -31 -33 -31 -65 0 -43 18 -67 69 -94 58 -29 66
-90 16 -113 -35 -16 -39 -16 -73 13 -26 22 -31 23 -43 9 -10 -13 -8 -19 12
-39 41 -41 125 -38 164 5 10 11 18 37 19 59 1 43 -26 81 -76 107 -41 21 -53
50 -33 80 18 29 60 32 87 7 21 -19 45 -5 35 21 -16 41 -103 47 -146 10z"/>
<path d="M4632 328 c-51 -91 -92 -168 -92 -171 0 -4 10 -7 23 -7 15 0 28 11
42 38 20 37 20 37 92 40 l72 3 12 -41 c10 -32 17 -40 36 -40 12 0 23 3 23 8 0
4 -27 81 -59 170 l-58 164 -91 -164z m118 -50 c0 -5 -23 -8 -51 -8 -28 0 -49
3 -47 8 2 4 17 33 33 65 l30 58 17 -58 c10 -32 18 -61 18 -65z"/>
<path d="M4930 477 c-13 -7 -30 -28 -38 -47 -19 -51 -3 -83 57 -120 54 -34 68
-58 51 -89 -10 -21 -40 -41 -59 -41 -5 0 -23 11 -39 25 -24 20 -32 22 -46 12
-16 -11 -15 -14 5 -35 31 -34 63 -43 112 -32 57 12 79 41 75 99 -3 42 -7 48
-60 89 -60 45 -70 68 -42 96 20 20 68 21 84 1 9 -11 16 -12 26 -4 44 37 -65
77 -126 46z"/>
<path d="M5512 326 c-50 -91 -92 -167 -92 -170 0 -4 10 -6 23 -6 15 0 29 12
45 40 l23 40 68 0 68 0 16 -40 c11 -29 21 -40 36 -40 12 0 21 4 21 8 0 5 -25
78 -55 162 -30 84 -56 157 -57 162 -2 5 -45 -65 -96 -156z m117 -38 c1 -15 -8
-18 -49 -18 l-50 0 32 65 33 66 17 -48 c9 -26 17 -56 17 -65z"/>
<path d="M6789 467 c-113 -60 -126 -239 -21 -300 46 -27 131 -25 184 5 115 63
120 244 8 300 -49 25 -118 23 -171 -5z m166 -47 c58 -54 53 -143 -10 -199 -30
-26 -44 -31 -85 -31 -40 0 -56 5 -81 28 -88 78 -10 242 109 229 26 -3 53 -14
67 -27z"/>
<path d="M7195 476 c-109 -49 -140 -214 -54 -293 61 -55 199 -50 199 8 0 16
-4 17 -26 9 -14 -6 -45 -10 -69 -10 -35 0 -49 6 -74 31 -27 26 -31 38 -31 83
0 70 30 115 88 136 38 13 47 13 87 -1 38 -14 45 -14 49 -2 9 21 9 21 -24 38
-35 18 -104 19 -145 1z"/>
<path d="M1916 453 c-8 -38 -36 -263 -36 -285 0 -16 10 -18 85 -18 84 0 85 0
85 25 0 24 -3 25 -60 25 -42 0 -60 4 -60 13 0 6 7 57 15 112 20 137 19 155 -4
155 -13 0 -21 -9 -25 -27z"/>
<path d="M2111 392 c-23 -181 -13 -223 60 -242 53 -15 104 -3 144 31 34 30 46
71 60 204 4 33 9 68 11 78 4 13 -1 17 -20 17 -14 0 -26 -6 -26 -12 -1 -40 -31
-222 -40 -238 -33 -62 -161 -48 -160 18 0 9 7 62 15 117 8 55 15 103 15 108 0
4 -11 7 -24 7 -22 0 -24 -5 -35 -88z"/>
<path d="M3166 458 c-8 -37 -36 -262 -36 -286 0 -21 4 -22 90 -22 89 0 90 0
90 25 0 24 -2 25 -66 25 l-67 0 7 38 c3 20 6 45 6 55 0 14 10 17 70 17 63 0
70 2 70 20 0 18 -7 20 -65 20 -61 0 -65 1 -65 23 1 61 7 67 81 67 62 0 69 2
69 20 0 19 -7 20 -90 20 -85 0 -90 -1 -94 -22z"/>
<path d="M3776 348 c-9 -73 -20 -148 -23 -166 -5 -29 -3 -32 20 -32 24 0 25 4
32 68 4 38 10 74 14 80 3 6 36 12 71 14 52 2 65 6 68 21 3 15 -5 17 -68 17
-62 0 -71 2 -66 16 3 9 6 29 6 45 l0 29 70 0 c63 0 70 2 70 20 0 18 -7 20 -89
20 l-88 0 -17 -132z"/>
<path d="M4040 476 c0 -2 -9 -70 -20 -151 -11 -81 -20 -154 -20 -161 0 -11 21
-14 90 -14 90 0 90 0 90 26 0 25 -1 25 -62 23 -70 -3 -64 -10 -60 76 l2 35 69
0 c60 0 69 2 74 20 5 19 0 20 -65 20 l-70 0 6 31 c3 17 6 38 6 45 0 11 17 14
70 14 63 0 70 2 70 20 0 19 -7 20 -90 20 -49 0 -90 -2 -90 -4z"/>
<path d="M4290 471 c0 -5 -9 -76 -20 -157 -11 -82 -20 -152 -20 -156 0 -5 10
-8 23 -8 23 0 24 5 41 142 10 79 20 153 23 166 4 18 1 22 -21 22 -14 0 -26 -4
-26 -9z"/>
<path d="M4380 460 c0 -17 7 -20 40 -20 47 0 47 0 25 -155 -20 -135 -20 -137
8 -133 23 3 23 3 51 231 l7 57 45 0 c37 0 44 3 44 20 0 19 -7 20 -110 20 -103
0 -110 -1 -110 -20z"/>
<path d="M5280 478 c0 -2 -9 -70 -20 -152 -25 -185 -25 -178 3 -174 20 3 23
11 30 76 l9 72 54 0 c73 0 104 28 104 94 0 64 -30 86 -116 86 -35 0 -64 -1
-64 -2z m124 -54 c37 -36 5 -84 -57 -84 l-40 0 7 38 c3 20 6 43 6 50 0 18 65
15 84 -4z"/>
<path d="M5789 478 c0 -2 -10 -76 -23 -165 l-22 -163 22 0 c18 0 23 7 29 43
14 91 17 107 24 107 3 0 26 -34 51 -75 l45 -75 50 2 c47 3 51 6 70 40 l20 38
71 0 71 0 12 -40 c10 -33 16 -40 37 -40 21 0 25 4 19 18 -3 9 -30 83 -58 165
-28 81 -54 147 -57 147 -3 0 -43 -66 -88 -147 -45 -82 -86 -154 -91 -161 -6
-9 -20 6 -50 54 -42 66 -43 83 -4 84 21 0 43 44 43 86 0 60 -32 84 -111 84
-33 0 -59 -1 -60 -2z m115 -57 c12 -13 15 -27 10 -45 -7 -31 -9 -32 -57 -41
-37 -7 -37 -7 -37 26 0 60 10 79 40 79 15 0 35 -8 44 -19z m270 -125 c6 -25 5
-26 -44 -26 -27 0 -50 2 -50 5 0 3 14 34 31 68 l32 62 12 -42 c7 -23 15 -53
19 -67z"/>
<path d="M6420 473 c0 -10 89 -315 93 -319 3 -3 176 294 185 318 2 4 -7 8 -20
8 -20 0 -33 -16 -78 -101 -80 -149 -72 -148 -106 -18 -26 98 -33 114 -52 117
-12 2 -22 0 -22 -5z"/>
<path d="M7436 458 c-8 -38 -36 -258 -36 -284 0 -24 2 -24 90 -24 l90 0 0 26
c0 25 -1 26 -65 22 -72 -3 -72 -4 -59 75 l7 37 68 0 c62 0 69 2 69 20 0 18 -7
20 -65 20 -61 0 -65 1 -65 23 1 61 7 67 81 67 62 0 69 2 69 20 0 19 -7 20 -90
20 -85 0 -90 -1 -94 -22z"/>
</g>
</svg>
